<?xml version="1.0" encoding="utf-8"?>
<!-- Generator: Adobe Illustrator 19.2.1, SVG Export Plug-In . SVG Version: 6.00 Build 0)  -->
<svg version="1.1" id="Layer_1" xmlns="http://www.w3.org/2000/svg" xmlns:xlink="http://www.w3.org/1999/xlink" x="0px" y="0px"
	 viewBox="0 0 16 15" style="enable-background:new 0 0 16 15;" xml:space="preserve">
<title>notifications-webhook</title>
<desc>Created with Sketch.</desc>
<g id="Symbols">
	<g id="Create-Menu:-In-App-Notification-_x22_Hover_x22_" transform="translate(-20.000000, -141.000000)">
		<g id="mp-triggered-menu-open-copy">
			<path id="notifications-webhook" d="M35.7,150.6c0.4,1.1,0.4,2.3-0.2,3.4c-1,1.9-3.4,2.6-5.2,1.5c-0.4-0.2-0.8-0.6-1.1-0.9l1-0.6
				c0.2,0.2,0.4,0.4,0.6,0.5c1.3,0.7,2.9,0.2,3.6-1.1c0.4-0.7,0.4-1.5,0.2-2.1c-0.1-0.4-0.3-0.7-0.6-1c-0.2-0.2-0.4-0.4-0.6-0.5
				c-0.7-0.4-1.4-0.4-2.1-0.2c0,0,0,0,0,0c-0.4,0.1-0.7,0.3-1,0.6l-0.6-1.1l-1.6-2.7c-0.1,0-0.1,0-0.2,0c-0.8,0-1.5-0.7-1.5-1.5
				c0-0.1,0-0.1,0-0.2c0-0.4,0.3-0.8,0.6-1c0.2-0.2,0.5-0.3,0.9-0.3c0.8,0,1.5,0.7,1.5,1.5c0,0.1,0,0.1,0,0.2c0,0.3-0.1,0.5-0.3,0.7
				l1.6,2.7c1-0.4,2.2-0.4,3.3,0.2c0.4,0.2,0.8,0.6,1.1,0.9C35.4,149.9,35.6,150.3,35.7,150.6z M22.6,152.8
				c-0.4-0.7-0.2-1.6,0.5-2.1c0,0,0.1,0,0.1-0.1c0.3-0.1,0.5-0.1,0.8-0.1l1.5-2.7c-0.9-0.7-1.4-1.8-1.4-3c0-0.5,0.1-1,0.3-1.4
				c0.1-0.4,0.3-0.7,0.6-1c0.7-0.9,1.8-1.5,3-1.5c2.1,0,3.9,1.7,3.9,3.9c0,0.5-0.1,1-0.3,1.4l-1-0.6c0.1-0.3,0.1-0.5,0.1-0.8
				c0-1.5-1.2-2.7-2.7-2.7c-0.8,0-1.5,0.3-2,0.9c-0.3,0.3-0.5,0.6-0.6,1c-0.1,0.3-0.1,0.5-0.1,0.8c0,0.8,0.3,1.5,0.8,2
				c0.3,0.3,0.6,0.5,1,0.6l-0.6,1.1l-1.5,2.7c0,0,0.1,0.1,0.1,0.1c0,0.1,0.1,0.1,0.1,0.2c0.2,0.4,0.2,0.8,0,1.2
				c-0.1,0.3-0.3,0.5-0.6,0.7c0,0-0.1,0-0.1,0.1c-0.4,0.2-0.8,0.2-1.2,0C23,153.3,22.7,153.1,22.6,152.8z M31.3,153.3
				c-0.2-0.2-0.4-0.4-0.5-0.6h-3.2c-0.2,1.1-0.8,2.1-1.9,2.8c-0.4,0.2-0.9,0.4-1.3,0.5c-0.4,0.1-0.8,0.1-1.2,0
				c-1.1-0.2-2.1-0.8-2.8-1.9c-1.1-1.9-0.4-4.3,1.4-5.3c0.4-0.2,0.9-0.4,1.3-0.5l0,1.2c-0.3,0.1-0.5,0.2-0.7,0.3
				c-1.3,0.8-1.7,2.4-1,3.7c0.4,0.7,1,1.1,1.7,1.3c0.4,0.1,0.8,0.1,1.2,0c0.3-0.1,0.5-0.2,0.7-0.3c0.7-0.4,1.1-1,1.2-1.7
				c0,0,0,0,0,0c0.1-0.4,0.1-0.8,0-1.2h1.2h3.1c0,0,0-0.1,0.1-0.1c0-0.1,0.1-0.1,0.1-0.2c0.2-0.3,0.6-0.6,1-0.6c0.3,0,0.6,0,0.9,0.2
				c0,0,0.1,0.1,0.1,0.1c0.3,0.2,0.6,0.6,0.6,1c0,0.3,0,0.6-0.2,0.9c-0.4,0.7-1.3,1-2,0.6C31.4,153.4,31.3,153.4,31.3,153.3z"/>
		</g>
	</g>
</g>
</svg>
